<svg xmlns="http://www.w3.org/2000/svg" width="30" height="29.999"><path data-name="Path 289" d="M14.121 1.799v-.92a.879.879 0 011.758 0v.92A15 15 0 0130 16.699a.879.879 0 01-1.758 0c0-.219-.936-.879-2.637-.879s-2.7.66-2.7.879a.879.879 0 01-1.758 0c0-.219-.936-.879-2.637-.879s-2.637.66-2.637.879v9.785a3.516 3.516 0 01-7.031 0 .879.879 0 011.758 0 1.758 1.758 0 003.516 0v-9.785c0-.219-.936-.879-2.637-.879a3.381 3.381 0 00-2.57.791v.014a.88.88 0 01-.808.945h-.092c-.008 0-.03.009-.047.009a.878.878 0 01-.872-.88c0-.219-.936-.879-2.637-.879s-2.7.66-2.7.879a.879.879 0 01-1.753 0 15 15 0 0114.121-14.9z" fill="#5f78e2"/></svg>