<svg xmlns="http://www.w3.org/2000/svg" width="24" height="27.6"><path d="M23.94 13.649a.8.8 0 00-1.046-.694 1.6 1.6 0 01-1.976-2.127.81.81 0 00-.533-1.082 1.612 1.612 0 01-1.153-1.871.809.809 0 00-.561-.934 7.2 7.2 0 00-5.2.3 3.077 3.077 0 01-.672.272v-.128a4.026 4.026 0 014-4.043.809.809 0 000-1.617 5.568 5.568 0 00-4.317 2.058A5.614 5.614 0 007.2 0H5.6a.8.8 0 00-.8.809 5.637 5.637 0 005.6 5.66h.874a5.967 5.967 0 00-.074 1.04 3.074 3.074 0 01-.672-.272C7.26 5.439 0 7.093 0 14.663 0 19.888 5.057 27.6 9.6 27.6a4.552 4.552 0 002.4-.673 4.552 4.552 0 002.4.673c4.543 0 9.6-7.712 9.6-12.938 0-.353-.028-.666-.06-1.014z" fill="#3ab54a"/></svg>