<svg xmlns="http://www.w3.org/2000/svg" width="28" height="27.351"><g fill="#d9a384"><path data-name="Path 291" d="M9.594 9.297a.524.524 0 00.3.091.529.529 0 00.507-.677 3.752 3.752 0 01.428-3.189 4.233 4.233 0 00.822-3.171A3.337 3.337 0 0010.187.087a.537.537 0 00-.6 0 .526.526 0 00-.215.556 4.489 4.489 0 01-.715 3.644 4.307 4.307 0 00-.537 2.654 3.317 3.317 0 001.474 2.356z"/><path data-name="Path 292" d="M13.929 9.07a.493.493 0 00.28.087.5.5 0 00.478-.635 2.852 2.852 0 01.321-2.419 3.391 3.391 0 00.658-2.541 2.691 2.691 0 00-1.178-1.822.5.5 0 00-.762.525 3.434 3.434 0 01-.554 2.781 3.447 3.447 0 00-.429 2.125 2.671 2.671 0 001.186 1.899z"/><path data-name="Path 293" d="M27.551 12.273a1.708 1.708 0 00-1.326-.6h-2.439a1.868 1.868 0 00-.35-1.29 1.149 1.149 0 00-.908-.4H1.395a1.3 1.3 0 00-1.042.438 1.87 1.87 0 00-.325 1.459 21.641 21.641 0 003.541 9.148 10.822 10.822 0 004.41 3.669H2.093a1.326 1.326 0 000 2.652H21.7a1.326 1.326 0 100-2.652h-5.857a10.271 10.271 0 003.711-2.787 9.065 9.065 0 005.354-2.558 9.878 9.878 0 003.063-5.386 2.156 2.156 0 00-.42-1.693zm-5.83 6.3a22.583 22.583 0 001.558-4.344h2.012a8.2 8.2 0 01-3.57 4.34z"/></g></svg>