<?xml version="1.0" standalone="no"?>
<!DOCTYPE svg PUBLIC "-//W3C//DTD SVG 1.1//EN" "http://www.w3.org/Graphics/SVG/1.1/DTD/svg11.dtd" >
<svg xmlns="http://www.w3.org/2000/svg" xmlns:xlink="http://www.w3.org/1999/xlink" version="1.1">
<metadata>
Created by FontForge 20170731 at Thu Sep 24 13:21:31 2020
 By Aleksey,,,
copyright missing
</metadata>
<defs>
<font id="Vegur-Regular" horiz-adv-x="1003" >
  <font-face 
    font-family="Vegur"
    font-weight="400"
    font-stretch="normal"
    units-per-em="2048"
    panose-1="0 0 5 0 0 0 0 0 0 0"
    ascent="1567"
    descent="-481"
    x-height="971"
    cap-height="1409"
    bbox="-203 -481 1946 1796"
    underline-thickness="102"
    underline-position="-204"
    unicode-range="U+0020-FB02"
  />
<missing-glyph horiz-adv-x="1024" 
d="M0 0v1434h1024v-1434h-1024zM512 809l348 522h-696zM573 717l349 -522v1044zM164 102h696l-348 523zM102 1239v-1044l349 522z" />
    <glyph glyph-name="fi" unicode="fi" horiz-adv-x="1034" 
d="M891 971v-971h-168v840h-365v-840h-168v840h-137v131h137v28q0 262 125 394.5t340 132.5q63 0 121 -15t90 -38l-16 -144q-83 57 -211 57q-138 0 -209.5 -99t-71.5 -265v-51h533z" />
    <glyph glyph-name="fl" unicode="fl" horiz-adv-x="1081" 
d="M770 0v1374q-60 17 -135 17q-119 0 -198 -88t-79 -238v-94h248v-131h-248v-840h-168v840h-137v131h137v71q0 223 131.5 353.5t340.5 130.5q162 0 276 -43v-1483h-168z" />
    <glyph glyph-name=".notdef" horiz-adv-x="1024" 
d="M0 0v1434h1024v-1434h-1024zM512 809l348 522h-696zM573 717l349 -522v1044zM164 102h696l-348 523zM102 1239v-1044l349 522z" />
    <glyph glyph-name=".null" horiz-adv-x="0" 
 />
    <glyph glyph-name="nonmarkingreturn" horiz-adv-x="682" 
 />
    <glyph glyph-name="space" unicode=" " horiz-adv-x="471" 
 />
    <glyph glyph-name="exclam" unicode="!" horiz-adv-x="512" 
d="M330 348h-148l-24 1061h196zM256 233q51 0 87 -35.5t36 -86.5t-36 -87t-87 -36t-87 36t-36 87t36 86.5t87 35.5z" />
    <glyph glyph-name="quotedbl" unicode="&#x22;" horiz-adv-x="655" 
d="M240 954h-111l-16 551h163zM506 954h-111l-16 551h164z" />
    <glyph glyph-name="numbersign" unicode="#" 
d="M743 815l-59 -274h162v-99h-182l-105 -483h-117l105 483h-178l-105 -483h-117l105 483h-154v99h174l60 274h-162v98h182l105 484h116l-104 -484h178l105 484h116l-104 -484h154v-98h-175zM567 541l60 274h-178l-60 -274h178z" />
    <glyph glyph-name="dollar" unicode="$" 
d="M854 1223l-23 -154q-114 78 -270 78q-91 0 -150 -42.5t-59 -113.5q0 -81 46.5 -126.5t168.5 -94.5q163 -66 230 -147t67 -211q0 -123 -82.5 -217t-220.5 -123v-166h-115v155q-172 0 -319 82l25 158q147 -92 309 -92q100 0 159.5 53.5t59.5 130.5q0 83 -42 131t-153 94
q-78 33 -130 63t-95.5 71t-64.5 93.5t-21 119.5q0 135 77.5 216.5t209.5 104.5v164h114v-156q83 -1 159 -21t120 -50z" />
    <glyph glyph-name="percent" unicode="%" horiz-adv-x="1634" 
d="M489 -41h-131l787 1438h131zM438 1376q139 0 228.5 -99t89.5 -261t-90 -261.5t-228 -99.5q-139 0 -228 99t-89 262q0 162 88.5 261t228.5 99zM438 1257q-71 0 -116.5 -61.5t-45.5 -179.5t45.5 -180t116.5 -62t116.5 62t45.5 180t-45.5 179.5t-116.5 61.5zM1196 700
q138 0 227.5 -99t89.5 -261t-89.5 -261t-227.5 -99q-140 0 -228.5 99t-88.5 261t88.5 261t228.5 99zM1196 582q-71 0 -116.5 -62t-45.5 -180t45.5 -180t116.5 -62t116.5 62t45.5 180t-45.5 180t-116.5 62z" />
    <glyph glyph-name="ampersand" unicode="&#x26;" horiz-adv-x="1284" 
d="M1004 -2l-101 117q-170 -135 -426 -135q-112 0 -209 42.5t-160 130t-63 203.5q0 217 297 418q-79 96 -115.5 168t-36.5 150q0 148 95 243t258 95q138 0 226.5 -80t88.5 -207q0 -234 -283 -402l326 -374q99 144 115 321h174q-35 -279 -170 -457l205 -233h-221zM530 1282
q-66 0 -108.5 -51t-42.5 -129q0 -116 98 -246q109 67 154 130t45 144q0 73 -40.5 112.5t-105.5 39.5zM795 244l-357 415q-205 -134 -205 -284q0 -110 75 -179t194 -69q160 0 293 117z" />
    <glyph glyph-name="quotesingle" unicode="'" horiz-adv-x="389" 
d="M240 954h-111l-16 551h163z" />
    <glyph glyph-name="parenleft" unicode="(" horiz-adv-x="593" 
d="M461 1556l67 -45q-245 -353 -245 -843q0 -491 245 -844l-67 -45q-132 140 -217.5 387.5t-85.5 501.5t85.5 501t217.5 387z" />
    <glyph glyph-name="parenright" unicode=")" horiz-adv-x="593" 
d="M66 1511l67 45q132 -140 217.5 -387t85.5 -501t-85.5 -501.5t-217.5 -387.5l-67 45q245 353 245 844q0 490 -245 843z" />
    <glyph glyph-name="asterisk" unicode="*" horiz-adv-x="958" 
d="M539 1024l290 131l56 -176l-312 -66l213 -237l-147 -107l-160 275l-160 -275l-147 107l213 237l-311 66l55 176l291 -131l-33 317h184z" />
    <glyph glyph-name="plus" unicode="+" horiz-adv-x="1110" 
d="M612 602h398v-98h-398v-443h-114v443h-398v98h398v442h114v-442z" />
    <glyph glyph-name="comma" unicode="," horiz-adv-x="458" 
d="M86 -291l-133 -10l151 508l201 8z" />
    <glyph glyph-name="hyphen" unicode="-" horiz-adv-x="712" 
d="M598 504h-483v98h483v-98z" />
    <glyph glyph-name="period" unicode="." horiz-adv-x="458" 
d="M207 225q51 0 87 -36t36 -87t-36 -86.5t-87 -35.5t-87 35.5t-36 86.5t36 87t87 36z" />
    <glyph glyph-name="slash" unicode="/" horiz-adv-x="804" 
d="M113 -199h-123l700 1733h125z" />
    <glyph glyph-name="zero" unicode="0" 
d="M502 1376q202 0 315 -178.5t113 -519.5t-113 -519.5t-315 -178.5q-204 0 -316 177.5t-112 520.5q0 338 113.5 518t314.5 180zM502 1229q-123 0 -183.5 -146t-60.5 -405q0 -551 244 -551q125 0 184 145.5t59 405.5q0 551 -243 551z" />
    <glyph glyph-name="one" unicode="1" 
d="M739 0h-168v1143l-366 -221l-4 174l405 260h133v-1356z" />
    <glyph glyph-name="two" unicode="2" 
d="M168 1090l-6 174q127 112 323 112q184 0 291 -99.5t107 -256.5q0 -90 -40.5 -181.5t-120 -196.5t-233.5 -277l-192 -218h604v-147h-817v127l295 340q135 156 204.5 257.5t90 161.5t20.5 130q0 96 -58.5 154.5t-174.5 58.5q-72 0 -154 -37.5t-139 -101.5z" />
    <glyph glyph-name="three" unicode="3" 
d="M164 1135l-6 155q56 39 137.5 62.5t163.5 23.5q190 0 294.5 -92.5t104.5 -234.5q0 -133 -97.5 -222t-238.5 -114q156 -13 253 -109t97 -229q0 -121 -65.5 -212.5t-172.5 -137t-239 -45.5q-178 0 -305 73l14 154q148 -80 299 -80q127 0 204 61.5t77 169.5
q0 119 -98.5 187.5t-286.5 68.5v131q150 0 260.5 83t110.5 194q0 99 -64.5 153t-183.5 54q-61 0 -130 -26t-128 -68z" />
    <glyph glyph-name="four" unicode="4" 
d="M780 498h170v-148h-170v-348h-168v348h-530v131l475 875h223v-858zM272 498h340v315q0 183 9 367z" />
    <glyph glyph-name="five" unicode="5" 
d="M866 1200h-497l-27 -391h45q244 0 374 -113.5t130 -298.5q0 -128 -63 -223.5t-169 -144.5t-239 -49q-182 0 -303 73l12 160q142 -86 299 -86q124 0 199 69.5t75 182.5q0 283 -374 283h-164l45 686h657v-148z" />
    <glyph glyph-name="six" unicode="6" 
d="M836 1376l22 -153q-248 -15 -405 -180.5t-181 -424.5q37 73 113.5 119.5t167.5 46.5q71 0 132.5 -22.5t104 -60.5t73 -87.5t45 -103.5t14.5 -109q0 -121 -56 -218t-149.5 -150t-204.5 -53q-187 0 -303.5 136t-116.5 396q0 185 56.5 343.5t156 269t236.5 176.5t295 75z
M502 635q-97 0 -161.5 -68t-64.5 -161q0 -121 64 -202t166 -81q95 0 164 73t69 173q0 114 -58.5 190t-178.5 76z" />
    <glyph glyph-name="seven" unicode="7" 
d="M944 1214l-571 -1212h-180l563 1198h-647v148h835v-134z" />
    <glyph glyph-name="eight" unicode="8" 
d="M518 1376q172 0 275.5 -94.5t103.5 -247.5q0 -112 -64.5 -198.5t-173.5 -128.5q252 -118 252 -361q0 -166 -120 -266t-297 -100q-178 0 -290 95.5t-112 250.5q0 128 72 226t196 136q-106 42 -168.5 129t-62.5 201q0 161 109 259.5t280 98.5zM514 1235q-98 0 -152.5 -58.5
t-54.5 -156.5q0 -91 53.5 -156.5t151.5 -91.5q94 18 150.5 89t56.5 159q0 101 -54 158t-151 57zM504 621q-232 -57 -232 -277q0 -96 64 -158.5t160 -62.5q105 0 170 61t65 152q0 216 -227 285z" />
    <glyph glyph-name="nine" unicode="9" 
d="M168 -20l-23 153q248 15 405 180t181 424q-38 -74 -114 -120t-166 -46q-71 0 -132.5 22.5t-104 60.5t-73 87.5t-45 103.5t-14.5 109q0 183 120 302.5t290 119.5q187 0 303 -136t116 -396q0 -185 -56.5 -343.5t-156 -269t-236 -176.5t-294.5 -75zM498 1233
q-95 0 -164.5 -73t-69.5 -173q0 -114 59 -190t179 -76q97 0 161 68t64 161q0 121 -63.5 202t-165.5 81z" />
    <glyph glyph-name="colon" unicode=":" horiz-adv-x="458" 
d="M207 999q51 0 87 -35.5t36 -86.5t-36 -87t-87 -36t-87 36t-36 87t36 86.5t87 35.5zM207 225q51 0 87 -36t36 -87t-36 -86.5t-87 -35.5t-87 35.5t-36 86.5t36 87t87 36z" />
    <glyph glyph-name="semicolon" unicode=";" horiz-adv-x="458" 
d="M207 999q51 0 87 -35.5t36 -86.5t-36 -87t-87 -36t-87 36t-36 87t36 86.5t87 35.5zM86 -291l-133 -10l151 508l201 8z" />
    <glyph glyph-name="less" unicode="&#x3c;" horiz-adv-x="1079" 
d="M954 891l-716 -375l716 -377v-131l-821 432v148l821 430v-127z" />
    <glyph glyph-name="equal" unicode="=" horiz-adv-x="1183" 
d="M1069 690h-954v98h954v-98zM1069 317h-954v99h954v-99z" />
    <glyph glyph-name="greater" unicode="&#x3e;" horiz-adv-x="1079" 
d="M946 586v-148l-821 -430v127l717 375l-717 377v131z" />
    <glyph glyph-name="question" unicode="?" horiz-adv-x="849" 
d="M80 1186l-8 151q52 41 143 67t182 26q182 0 282.5 -84t100.5 -236q0 -103 -52.5 -201t-172.5 -233q-68 -79 -92.5 -150.5t-24.5 -177.5h-182q0 107 29.5 196.5t117.5 190.5q110 126 149.5 202t39.5 148q0 93 -58 145t-167 52q-67 0 -150 -26.5t-137 -69.5zM354 225
q51 0 87 -36t36 -87t-36 -86.5t-87 -35.5t-87 35.5t-36 86.5t36 87t87 36z" />
    <glyph glyph-name="at" unicode="@" horiz-adv-x="1736" 
d="M1251 -68l6 -102q-196 -109 -460 -109q-134 0 -256 46.5t-216 130.5t-150 212t-56 281q0 150 44 285t122 238t181.5 178.5t227 115t254.5 39.5q145 0 271 -55t211 -145.5t133.5 -208t48.5 -242.5q0 -231 -119 -364.5t-289 -133.5q-153 0 -192 142q-35 -69 -104.5 -109.5
t-151.5 -40.5q-111 0 -186.5 84t-75.5 221q0 222 137.5 356t361.5 134q58 0 126.5 -14t105.5 -33l-70 -473q-19 -154 100 -154q95 0 166.5 102t71.5 252q0 163 -65.5 290.5t-196.5 203.5t-309 76q-108 0 -210.5 -34.5t-187 -99.5t-148 -151t-99 -196t-35.5 -228
q0 -183 75.5 -320.5t206 -209.5t295.5 -72q251 0 432 108zM1020 485l37 265q-33 8 -80 8q-138 0 -231 -94.5t-93 -253.5q0 -95 45.5 -145t106.5 -50q88 0 142.5 73t72.5 197z" />
    <glyph glyph-name="A" unicode="A" horiz-adv-x="1220" 
d="M864 465h-510l-149 -465h-178l477 1409h217l477 -1409h-184zM817 612l-209 648l-207 -648h416z" />
    <glyph glyph-name="B" unicode="B" horiz-adv-x="1058" 
d="M156 6v1397q201 27 307 27q253 0 375.5 -101t122.5 -278q0 -124 -89.5 -213.5t-224.5 -116.5q145 -20 233.5 -118.5t88.5 -227.5q0 -182 -143 -288.5t-375 -106.5q-171 0 -295 26zM324 764h86q165 0 266.5 68.5t101.5 195.5q0 254 -311 254q-61 0 -143 -10v-508zM324 627
v-492q106 -8 155 -8q129 0 217 61t88 166q0 126 -90.5 199.5t-273.5 73.5h-96z" />
    <glyph glyph-name="C" unicode="C" horiz-adv-x="1271" 
d="M1182 211l14 -152q-165 -79 -408 -79q-150 0 -277.5 48.5t-221 138.5t-146.5 225.5t-53 301.5q0 147 41.5 270t112.5 208t166 144t200 86.5t217 27.5q244 0 385 -87l-12 -153q-159 92 -383 92q-101 0 -195 -36.5t-171.5 -105.5t-124.5 -181t-47 -250q0 -145 44 -258.5
t119.5 -183t169.5 -105t199 -35.5q202 0 371 84z" />
    <glyph glyph-name="D" unicode="D" horiz-adv-x="1361" 
d="M156 6v1399q220 25 342 25q194 0 343.5 -50.5t244.5 -143t143.5 -219.5t48.5 -284q0 -177 -62.5 -320t-174 -237.5t-264 -145t-333.5 -50.5q-155 0 -288 26zM324 1270v-1133q75 -10 133 -10q185 0 328.5 67.5t227 201.5t83.5 317q0 276 -153 422.5t-451 146.5
q-76 0 -168 -12z" />
    <glyph glyph-name="E" unicode="E" horiz-adv-x="993" 
d="M905 1253h-581v-469h516v-147h-516v-490h589v-147h-757v1401h749v-148z" />
    <glyph glyph-name="F" unicode="F" horiz-adv-x="940" 
d="M905 1253h-581v-538h516v-148h-516v-567h-168v1401h749v-148z" />
    <glyph glyph-name="G" unicode="G" horiz-adv-x="1337" 
d="M1204 678v-619q-83 -35 -211 -57t-231 -22q-310 0 -491 187t-181 527q0 145 41 267.5t111 207.5t164 145t199 88t216 28q119 0 226.5 -24.5t171.5 -66.5l-13 -157q-176 102 -405 102q-102 0 -194 -36.5t-166 -105.5t-118 -180.5t-44 -250.5q0 -286 136 -435t365 -149
q59 0 132 11.5t124 31.5v360h-301v148h469z" />
    <glyph glyph-name="H" unicode="H" horiz-adv-x="1376" 
d="M1233 0h-168v637h-741v-637h-168v1409h168v-625h741v625h168v-1409z" />
    <glyph glyph-name="I" unicode="I" horiz-adv-x="466" 
d="M324 0h-168v1409h168v-1409z" />
    <glyph glyph-name="J" unicode="J" horiz-adv-x="489" 
d="M350 1409v-1112q0 -199 -55.5 -341t-159.5 -233.5t-270 -160.5l-68 145q103 44 171.5 91t118.5 115.5t72.5 160.5t22.5 219v1116h168z" />
    <glyph glyph-name="K" unicode="K" horiz-adv-x="1089" 
d="M514 696l592 -696h-229l-494 594l-59 -68v-526h-168v1409h168v-711l583 711h207z" />
    <glyph glyph-name="L" unicode="L" horiz-adv-x="958" 
d="M324 147h596v-147h-764v1409h168v-1262z" />
    <glyph glyph-name="M" unicode="M" horiz-adv-x="1720" 
d="M424 1409l328 -881q68 -187 114 -368q43 172 115 368l328 881h254l20 -1409h-168l-12 856q-3 164 6 430q-49 -217 -131 -430l-324 -848h-182l-323 848q-26 65 -66 192t-68 238q11 -342 9 -430l-13 -856h-164l21 1409h256z" />
    <glyph glyph-name="N" unicode="N" horiz-adv-x="1347" 
d="M1208 0h-198l-502 815q-125 198 -215 377q6 -164 6 -377v-815h-160v1409h199l493 -799q2 -4 36.5 -60.5t43 -71t36.5 -63t41.5 -75t33 -65.5t33.5 -72q-6 154 -6 407v799h159v-1409z" />
    <glyph glyph-name="O" unicode="O" horiz-adv-x="1449" 
d="M725 1430q291 0 471 -197.5t180 -527.5t-180 -527.5t-471 -197.5t-471 197.5t-180 527.5t180 527.5t471 197.5zM725 1282q-75 0 -143.5 -22.5t-127 -69t-101 -114t-67 -162.5t-24.5 -209q0 -142 37 -254t101.5 -181.5t147 -106t177.5 -36.5t177.5 36.5t147 106
t101.5 181.5t37 254q0 114 -24.5 209t-67 162.5t-101 114t-127 69t-143.5 22.5z" />
    <glyph glyph-name="P" unicode="P" horiz-adv-x="1007" 
d="M156 0v1399q160 31 307 31q245 0 378.5 -115.5t133.5 -296.5q0 -110 -45 -197.5t-122.5 -142t-177.5 -83t-214 -28.5q-40 0 -92 6v-573h-168zM324 1272v-555q46 -6 98 -6q164 0 267.5 74.5t103.5 211.5q0 131 -85.5 208t-240.5 77q-61 0 -143 -10z" />
    <glyph glyph-name="Q" unicode="Q" horiz-adv-x="1449" 
d="M1040 -418l-315 398q-291 0 -471 197.5t-180 527.5t180 527.5t471 197.5t471 -197.5t180 -527.5q0 -267 -129.5 -451t-345.5 -242l279 -334zM723 125q95 0 178 36.5t147.5 106.5t102 183t37.5 254q0 114 -24.5 209t-67 162.5t-101 114t-127 69t-143.5 22.5t-143.5 -22.5
t-127 -69t-101 -114t-67 -162.5t-24.5 -209q0 -142 37 -254t101 -182.5t146 -107t177 -36.5z" />
    <glyph glyph-name="R" unicode="R" horiz-adv-x="1071" 
d="M156 0v1405q186 25 307 25q247 0 376.5 -107t129.5 -291q0 -132 -91.5 -225t-224.5 -121q106 -22 157.5 -94.5t78.5 -204.5q47 -216 108 -387h-194q-44 159 -86 371q-22 113 -92.5 165t-204.5 52h-96v-588h-168zM324 725h71q171 0 281 78t110 213q0 127 -82 196.5
t-237 69.5q-61 0 -143 -10v-547z" />
    <glyph glyph-name="S" unicode="S" horiz-adv-x="1015" 
d="M94 63l21 160q72 -48 163.5 -72t170.5 -24q123 0 201.5 66.5t78.5 166.5q0 91 -56 153.5t-179 109.5q-166 64 -255 157.5t-89 241.5q0 187 127 297.5t333 110.5q73 0 154.5 -21t126.5 -51l-21 -160q-48 36 -123 60t-151 24q-111 0 -189.5 -65.5t-78.5 -163.5
q0 -99 60.5 -166t186.5 -113q175 -65 256.5 -157t81.5 -230q0 -177 -132 -292t-347 -115q-197 0 -340 83z" />
    <glyph glyph-name="T" unicode="T" horiz-adv-x="1017" 
d="M1022 1253h-426v-1253h-168v1253h-426v148h1020v-148z" />
    <glyph glyph-name="U" unicode="U" horiz-adv-x="1304" 
d="M1176 1409v-920q0 -240 -145 -379t-384 -139q-231 0 -368.5 138.5t-137.5 359.5v940h168v-915q0 -171 99 -271t256 -100q153 0 248.5 94.5t95.5 255.5v936h168z" />
    <glyph glyph-name="V" unicode="V" horiz-adv-x="1196" 
d="M715 0h-217l-478 1409h185l405 -1251l404 1251h178z" />
    <glyph glyph-name="W" unicode="W" horiz-adv-x="1759" 
d="M213 1409l217 -881q41 -170 78 -368q21 143 74 368l213 873h194l213 -873q46 -183 70 -370q23 144 80 370l221 881h182l-385 -1409h-213l-201 856q-45 190 -71 369q-28 -190 -70 -369l-201 -856h-215l-379 1409h193z" />
    <glyph glyph-name="X" unicode="X" horiz-adv-x="1087" 
d="M653 707l426 -707h-209l-323 573l-326 -573h-190l420 700l-406 709h205l307 -580l336 580h190z" />
    <glyph glyph-name="Y" unicode="Y" horiz-adv-x="1085" 
d="M649 606v-606h-168v606l-465 803h207l348 -657l353 657h190z" />
    <glyph glyph-name="Z" unicode="Z" horiz-adv-x="1089" 
d="M1030 1262l-745 -1115h755v-147h-966v133l745 1120h-686v148h897v-139z" />
    <glyph glyph-name="bracketleft" unicode="[" horiz-adv-x="716" 
d="M557 1436h-238v-1536h238v-99h-352v1733h352v-98z" />
    <glyph glyph-name="backslash" unicode="\" horiz-adv-x="802" 
d="M813 -199h-123l-700 1733h121z" />
    <glyph glyph-name="bracketright" unicode="]" horiz-adv-x="716" 
d="M512 -199h-352v99h237v1536h-237v98h352v-1733z" />
    <glyph glyph-name="asciicircum" unicode="^" horiz-adv-x="954" 
d="M844 461h-131l-234 524l-239 -524h-129l309 647h121z" />
    <glyph glyph-name="underscore" unicode="_" horiz-adv-x="1024" 
d="M1024 -176h-1024v98h1024v-98z" />
    <glyph glyph-name="grave" unicode="`" horiz-adv-x="1024" 
d="M475 1333l170 -235l-139 8l-217 235z" />
    <glyph glyph-name="a" unicode="a" horiz-adv-x="964" 
d="M188 786l-10 140q130 73 303 73q348 0 348 -350v-649h-147l-18 145q-89 -165 -281 -165q-119 0 -203 74.5t-84 209.5q0 108 58.5 185.5t153.5 114t216 36.5q82 0 138 -12v76q0 97 -57 146.5t-165 49.5q-128 0 -252 -74zM662 379v84q-50 12 -121 12q-118 0 -191.5 -56
t-73.5 -145q0 -74 44.5 -118.5t115.5 -44.5q91 0 158.5 75t67.5 193z" />
    <glyph glyph-name="b" unicode="b" horiz-adv-x="1112" 
d="M311 1505v-696q45 88 124 139t179 51q188 0 304 -137t116 -360q0 -230 -125.5 -376t-320.5 -146q-102 0 -180 53t-103 133l-10 -166h-152v1505h168zM311 553v-107q0 -138 76 -231.5t186 -93.5q121 0 199 102t78 271q0 155 -71.5 257.5t-198.5 102.5q-104 0 -186.5 -88.5
t-82.5 -212.5z" />
    <glyph glyph-name="c" unicode="c" horiz-adv-x="880" 
d="M797 164l14 -137q-118 -47 -258 -47q-102 0 -187 30.5t-150 90t-101.5 156t-36.5 220.5t41.5 225t112 165t160.5 98t190 34q147 0 239 -45l-14 -147q-95 53 -219 53q-144 0 -235 -95t-91 -276q0 -182 85.5 -278t242.5 -96q111 0 207 49z" />
    <glyph glyph-name="d" unicode="d" horiz-adv-x="1112" 
d="M969 1505v-1505h-152l-12 178q-46 -92 -125 -145t-182 -53q-188 0 -304 137t-116 360q0 230 125.5 376t320.5 146q98 0 173.5 -48.5t103.5 -123.5v678h168zM801 426v106q0 138 -76 232t-186 94q-121 0 -199 -102t-78 -271q0 -155 71.5 -257.5t198.5 -102.5
q104 0 186.5 88.5t82.5 212.5z" />
    <glyph glyph-name="e" unicode="e" horiz-adv-x="962" 
d="M811 186l8 -139q-121 -67 -297 -67q-207 0 -325.5 124t-118.5 359q0 245 119.5 390.5t318.5 145.5q74 0 134.5 -25t101.5 -68.5t69 -104.5t40.5 -132.5t12.5 -152.5q0 -40 -8 -84h-612q7 -164 83.5 -240.5t225.5 -76.5q132 0 248 71zM258 569h447q0 129 -50 208t-157 79
q-100 0 -164.5 -78.5t-75.5 -208.5z" />
    <glyph glyph-name="f" unicode="f" horiz-adv-x="630" 
d="M190 971v92q0 223 106 343t292 120q79 0 137 -21l-10 -139q-55 20 -125 20q-98 0 -165 -76.5t-67 -224.5v-114h248v-131h-248v-840h-168v840h-137v131h137z" />
    <glyph glyph-name="g" unicode="g" horiz-adv-x="1112" 
d="M969 979v-883q0 -268 -141.5 -402t-391.5 -134q-158 0 -280 78l10 151q63 -42 140 -66t143 -24q166 0 259 96t93 287v88q-45 -88 -124 -139t-179 -51q-188 0 -304 137t-116 360q0 230 125.5 376t320.5 146q102 0 180 -53t103 -133l10 166h152zM801 426v106q0 138 -76 232
t-186 94q-121 0 -199 -102t-78 -271q0 -155 71.5 -257.5t198.5 -102.5q104 0 186.5 88.5t82.5 212.5z" />
    <glyph glyph-name="h" unicode="h" horiz-adv-x="1071" 
d="M311 1505v-700q41 96 123 145t176 49q154 0 240 -95.5t86 -250.5v-653h-168v604q0 111 -53.5 179.5t-163.5 68.5q-99 0 -169.5 -89t-70.5 -216v-547h-168v1505h168z" />
    <glyph glyph-name="i" unicode="i" horiz-adv-x="454" 
d="M227 1337q43 0 74 -30.5t31 -73.5t-31 -74t-74 -31t-73.5 31t-30.5 74t30.5 73.5t73.5 30.5zM143 0v979h168v-979h-168z" />
    <glyph glyph-name="j" unicode="j" horiz-adv-x="487" 
d="M260 1337q43 0 74 -30.5t31 -73.5t-31 -74t-74 -31t-73.5 31t-30.5 74t30.5 73.5t73.5 30.5zM344 979v-719q0 -144 -26 -255t-79 -192.5t-118 -138.5t-158 -110l-88 129q108 63 171 131.5t96.5 172t33.5 253.5v729h168z" />
    <glyph glyph-name="k" unicode="k" horiz-adv-x="927" 
d="M922 0h-230l-323 430l-58 -59v-371h-168v1505h168v-977l396 451h208l-419 -453z" />
    <glyph glyph-name="l" unicode="l" horiz-adv-x="454" 
d="M311 0h-168v1505h168v-1505z" />
    <glyph glyph-name="m" unicode="m" horiz-adv-x="1613" 
d="M295 979l12 -180q37 99 113.5 149.5t171.5 50.5q111 0 182 -55t100 -151q102 206 302 206q149 0 226 -96.5t77 -251.5v-651h-168v602q0 250 -195 250q-93 0 -157 -88.5t-64 -216.5v-547h-168v602q0 250 -195 250q-93 0 -157 -88.5t-64 -216.5v-547h-168v979h152z" />
    <glyph glyph-name="n" unicode="n" horiz-adv-x="1071" 
d="M295 979l12 -184q39 101 122.5 152.5t180.5 51.5q154 0 240 -95.5t86 -250.5v-653h-168v604q0 111 -53.5 179.5t-163.5 68.5q-99 0 -169.5 -89t-70.5 -216v-547h-168v979h152z" />
    <glyph glyph-name="o" unicode="o" horiz-adv-x="1064" 
d="M532 999q208 0 331.5 -140t123.5 -370t-123.5 -369.5t-331.5 -139.5t-331 139.5t-123 369.5t123 370t331 140zM532 864q-129 0 -199.5 -105t-70.5 -270t70.5 -269.5t199.5 -104.5t200 104.5t71 269.5t-71 270t-200 105z" />
    <glyph glyph-name="p" unicode="p" horiz-adv-x="1112" 
d="M295 979l12 -178q46 92 125 145t182 53q188 0 304 -137t116 -360q0 -230 -125.5 -376t-320.5 -146q-98 0 -173.5 48.5t-103.5 123.5v-572h-168v1399h152zM311 553v-107q0 -138 76 -231.5t186 -93.5q121 0 199 102t78 271q0 155 -71.5 257.5t-198.5 102.5
q-104 0 -186.5 -88.5t-82.5 -212.5z" />
    <glyph glyph-name="q" unicode="q" horiz-adv-x="1112" 
d="M969 979v-1399h-168v590q-45 -88 -124 -139t-179 -51q-188 0 -304 137t-116 360q0 230 125.5 376t320.5 146q102 0 180 -53t103 -133l10 166h152zM801 426v106q0 138 -76 232t-186 94q-121 0 -199 -102t-78 -271q0 -155 71.5 -257.5t198.5 -102.5q104 0 186.5 88.5
t82.5 212.5z" />
    <glyph glyph-name="r" unicode="r" horiz-adv-x="653" 
d="M295 979l10 -148q22 72 79.5 118t131.5 46q50 0 98 -10l-8 -151q-46 12 -96 12q-92 0 -145.5 -78t-53.5 -219v-549h-168v979h152z" />
    <glyph glyph-name="s" unicode="s" horiz-adv-x="755" 
d="M68 25l10 141q121 -47 229 -47q89 0 148 38.5t59 104.5q0 56 -36 90.5t-118 65.5q-135 51 -197.5 115.5t-62.5 175.5q0 60 19 109t51.5 82t76.5 55.5t93.5 33t103.5 10.5q58 0 119.5 -13.5t100.5 -33.5l-11 -143q-84 51 -217 51q-71 0 -117.5 -37.5t-46.5 -95.5
q0 -67 37.5 -104t106.5 -60q141 -45 204.5 -112.5t63.5 -176.5q0 -91 -51.5 -159t-136.5 -101.5t-191 -33.5q-124 0 -237 45z" />
    <glyph glyph-name="t" unicode="t" horiz-adv-x="686" 
d="M373 971h264v-131h-264v-557q0 -83 39 -124.5t108 -41.5q64 0 109 18l8 -125q-62 -30 -154 -30q-278 0 -278 290v570h-154v131h154v258h168v-258z" />
    <glyph glyph-name="u" unicode="u" horiz-adv-x="1071" 
d="M928 979v-979h-152l-12 184q-39 -101 -122.5 -152.5t-180.5 -51.5q-154 0 -240 95.5t-86 250.5v653h168v-604q0 -111 53.5 -179.5t163.5 -68.5q99 0 169.5 89t70.5 216v547h168z" />
    <glyph glyph-name="v" unicode="v" horiz-adv-x="931" 
d="M563 0h-186l-361 979h193l266 -819l268 819h183z" />
    <glyph glyph-name="w" unicode="w" horiz-adv-x="1341" 
d="M1049 0h-189l-94 365q-58 217 -90 403q-26 -180 -86 -403l-96 -365h-191l-287 979h189l119 -451q49 -181 75 -385q22 168 80 385l117 443h172l115 -443q54 -203 78 -385q23 175 79 385l119 451h176z" />
    <glyph glyph-name="x" unicode="x" horiz-adv-x="872" 
d="M512 487l315 -487h-194l-225 369l-224 -369h-182l317 487l-309 492h193l223 -375l227 375h183z" />
    <glyph glyph-name="y" unicode="y" horiz-adv-x="931" 
d="M926 979l-363 -979q-62 -169 -173.5 -284t-256.5 -156l-59 143q240 85 309 281l-367 995h193l266 -819l268 819h183z" />
    <glyph glyph-name="z" unicode="z" horiz-adv-x="811" 
d="M756 840l-512 -709h514v-131h-705v125l506 715h-473v131h670v-131z" />
    <glyph glyph-name="braceleft" unicode="{" horiz-adv-x="718" 
d="M561 1544v-98q-108 0 -148 -43.5t-30 -157.5l35 -379q7 -83 -27.5 -131.5t-105.5 -60.5q148 -27 133 -205l-33 -379q-9 -114 30 -157.5t146 -43.5v-98q-167 0 -235.5 77.5t-53.5 266.5l27 309q7 100 -24.5 137t-120.5 37v99q89 0 120.5 37t24.5 137l-27 309
q-15 189 53.5 266.5t235.5 77.5z" />
    <glyph glyph-name="bar" unicode="|" horiz-adv-x="606" 
d="M360 -481h-114v2048h114v-2048z" />
    <glyph glyph-name="braceright" unicode="}" horiz-adv-x="718" 
d="M158 1446v98q167 0 235 -77.5t53 -266.5l-26 -309q-7 -100 24.5 -137t120.5 -37v-99q-89 0 -120.5 -37t-24.5 -137l26 -309q15 -189 -53 -266.5t-235 -77.5v98q107 0 146 43.5t30 157.5l-33 379q-15 168 133 193q-148 27 -133 204l33 379q9 114 -30 157.5t-146 43.5z" />
    <glyph glyph-name="asciitilde" unicode="~" horiz-adv-x="1134" 
d="M932 682h104q0 -159 -56 -229t-163 -70q-55 0 -115.5 21t-160.5 75q-158 86 -222 86t-90 -42.5t-26 -147.5h-105q0 159 56 229t163 70q56 0 117 -21t160 -75q154 -86 221 -86q64 0 90.5 43t26.5 147z" />
    <glyph glyph-name="exclamdown" unicode="&#xa1;" horiz-adv-x="512" 
d="M256 999q51 0 87 -35.5t36 -86.5t-36 -87t-87 -36t-87 36t-36 87t36 86.5t87 35.5zM354 -422h-196l24 1061h148z" />
    <glyph glyph-name="sterling" unicode="&#xa3;" horiz-adv-x="983" 
d="M926 1321l-11 -154q-89 62 -210 62q-124 0 -191.5 -75.5t-67.5 -217.5q0 -86 31 -201h348v-114h-319q20 -62 20 -138q0 -131 -45.5 -206t-144.5 -127h567v-148h-772v131q28 15 44 24t44 28t45 36t38.5 45t33.5 57t20.5 69.5t8.5 86.5q0 85 -25 142h-219v114h190
q-28 119 -28 193q0 213 114 330.5t308 117.5q132 0 221 -55z" />
    <glyph glyph-name="yen" unicode="&#xa5;" 
d="M651 770h217v-111h-280v-124h280v-111h-280v-424h-168v424h-281v111h281v124h-281v111h213l-295 571h209l242 -563l256 563h184z" />
    <glyph glyph-name="dieresis" unicode="&#xa8;" horiz-adv-x="1024" 
d="M352 1284q38 0 66 -28t28 -66t-28 -66t-66 -28t-66 28t-28 66t28 66t66 28zM672 1284q38 0 66 -28t28 -66t-28 -66t-66 -28t-66 28t-28 66t28 66t66 28z" />
    <glyph glyph-name="guillemotleft" unicode="&#xab;" horiz-adv-x="892" 
d="M240 516l243 -346h-147l-244 346l244 346h147zM547 516l244 -346h-148l-244 346l244 346h148z" />
    <glyph glyph-name="acute" unicode="&#xb4;" horiz-adv-x="1024" 
d="M473 1106l-139 -8l170 235l186 8z" />
    <glyph glyph-name="cedilla" unicode="&#xb8;" horiz-adv-x="1024" 
d="M580 20l-41 -73q68 -11 104.5 -45.5t36.5 -91.5q0 -76 -58 -115t-165 -39q-61 0 -111 27l10 79q51 -28 119 -28q39 0 62.5 19t23.5 50q0 39 -33.5 58.5t-115.5 19.5l75 139h93z" />
    <glyph glyph-name="guillemotright" unicode="&#xbb;" horiz-adv-x="892" 
d="M494 516l-244 -346h-148l244 346l-244 346h148zM801 516l-244 -346h-147l243 346l-243 346h147z" />
    <glyph glyph-name="questiondown" unicode="&#xbf;" horiz-adv-x="827" 
d="M496 999q51 0 86.5 -35.5t35.5 -86.5t-35.5 -87t-86.5 -36t-87 36t-36 87t36 86.5t87 35.5zM412 639h168q4 -31 4 -74q0 -81 -33.5 -155.5t-104.5 -157.5q-110 -126 -149 -202t-39 -148q0 -92 64.5 -144.5t175.5 -52.5q66 0 141.5 26.5t130.5 69.5l8 -151
q-53 -42 -137 -67t-174 -25q-181 0 -289 91.5t-108 244.5q0 101 50.5 188.5t174.5 228.5q68 79 92.5 150.5t24.5 177.5z" />
    <glyph glyph-name="Agrave" unicode="&#xc0;" horiz-adv-x="1220" 
d="M520 1747l170 -236l-139 9l-217 235zM354 465l-149 -465h-178l477 1409h217l477 -1409h-184l-150 465h-510zM608 1260l-207 -648h416z" />
    <glyph glyph-name="Aacute" unicode="&#xc1;" horiz-adv-x="1220" 
d="M672 1520l-140 -9l170 236l187 8zM354 465l-149 -465h-178l477 1409h217l477 -1409h-184l-150 465h-510zM608 1260l-207 -648h416z" />
    <glyph glyph-name="Acircumflex" unicode="&#xc2;" horiz-adv-x="1220" 
d="M852 1518h-131l-109 153l-108 -153h-129l178 237h121zM354 465l-149 -465h-178l477 1409h217l477 -1409h-184l-150 465h-510zM608 1260l-207 -648h416z" />
    <glyph glyph-name="Atilde" unicode="&#xc3;" horiz-adv-x="1220" 
d="M838 1706v-18q0 -66 -31.5 -101t-85.5 -35q-31 0 -125 25q-68 22 -90 22q-41 0 -41 -49h-78v19q0 66 31.5 100.5t85.5 34.5q38 0 125 -27q72 -20 90 -20q41 0 41 49h78zM354 465l-149 -465h-178l477 1409h217l477 -1409h-184l-150 465h-510zM608 1260l-207 -648h416z" />
    <glyph glyph-name="Adieresis" unicode="&#xc4;" horiz-adv-x="1220" 
d="M453 1698q38 0 66 -28t28 -66t-28 -66.5t-66 -28.5t-66.5 28.5t-28.5 66.5t28.5 66t66.5 28zM772 1698q38 0 66 -28t28 -66t-28 -66.5t-66 -28.5t-66 28.5t-28 66.5t28 66t66 28zM354 465l-149 -465h-178l477 1409h217l477 -1409h-184l-150 465h-510zM608 1260l-207 -648
h416z" />
    <glyph glyph-name="Aring" unicode="&#xc5;" horiz-adv-x="1220" 
d="M612 1796q70 0 115 -40.5t45 -108.5t-45 -109t-115 -41t-114.5 41t-44.5 109t44.5 108.5t114.5 40.5zM612 1733q-30 0 -49.5 -23t-19.5 -63q0 -41 19 -63.5t50 -22.5t50.5 22.5t19.5 63.5q0 40 -20 63t-50 23zM354 465l-149 -465h-178l477 1409h217l477 -1409h-184
l-150 465h-510zM608 1260l-207 -648h416z" />
    <glyph glyph-name="AE" unicode="&#xc6;" horiz-adv-x="1744" 
d="M1665 147v-147h-729l-57 465h-459l-219 -465h-199l694 1401h887v-148h-627l58 -469h526v-147h-510l60 -490h575zM862 612l-78 631l-295 -631h373z" />
    <glyph glyph-name="Ccedilla" unicode="&#xc7;" horiz-adv-x="1271" 
d="M1212 1343l-12 -153q-159 92 -383 92q-101 0 -195 -36.5t-171.5 -105.5t-124.5 -181t-47 -250q0 -145 44 -258.5t119.5 -183t169.5 -105t199 -35.5q202 0 371 84l14 -152q-152 -73 -362 -79l-19 -33q68 -11 104.5 -45.5t36.5 -91.5q0 -76 -58 -115t-165 -39
q-61 0 -110 27l10 79q51 -28 119 -28q39 0 62.5 19t23.5 50q0 39 -34 58.5t-116 19.5l53 101q-141 7 -260 58.5t-206 141.5t-136 221.5t-49 290.5q0 147 41.5 270t112.5 208t166 144t200 86.5t217 27.5q244 0 385 -87z" />
    <glyph glyph-name="Egrave" unicode="&#xc8;" horiz-adv-x="993" 
d="M446 1747l170 -236l-139 9l-217 235zM905 1253h-581v-469h516v-147h-516v-490h589v-147h-757v1401h749v-148z" />
    <glyph glyph-name="Eacute" unicode="&#xc9;" horiz-adv-x="993" 
d="M598 1520l-139 -9l170 236l186 8zM324 1253v-469h516v-147h-516v-490h589v-147h-757v1401h749v-148h-581z" />
    <glyph glyph-name="Ecircumflex" unicode="&#xca;" horiz-adv-x="993" 
d="M778 1518h-131l-108 153l-109 -153h-129l178 237h121zM324 1253v-469h516v-147h-516v-490h589v-147h-757v1401h749v-148h-581z" />
    <glyph glyph-name="Edieresis" unicode="&#xcb;" horiz-adv-x="993" 
d="M379 1698q38 0 66 -28t28 -66t-28 -66.5t-66 -28.5t-66 28.5t-28 66.5t28 66t66 28zM698 1698q38 0 66.5 -28t28.5 -66t-28.5 -66.5t-66.5 -28.5t-66 28.5t-28 66.5t28 66t66 28zM905 1253h-581v-469h516v-147h-516v-490h589v-147h-757v1401h749v-148z" />
    <glyph glyph-name="Igrave" unicode="&#xcc;" horiz-adv-x="466" 
d="M141 1763l170 -235l-139 8l-217 236zM156 0v1409h168v-1409h-168z" />
    <glyph glyph-name="Iacute" unicode="&#xcd;" horiz-adv-x="466" 
d="M293 1536l-139 -8l170 235l186 9zM156 0v1409h168v-1409h-168z" />
    <glyph glyph-name="Icircumflex" unicode="&#xce;" horiz-adv-x="466" 
d="M471 1534h-131l-109 154l-108 -154h-129l178 238h121zM156 0v1409h168v-1409h-168z" />
    <glyph glyph-name="Idieresis" unicode="&#xcf;" horiz-adv-x="466" 
d="M74 1714q38 0 66 -28t28 -66t-28 -66t-66 -28t-66 28t-28 66t28 66t66 28zM393 1714q38 0 66 -28t28 -66t-28 -66t-66 -28t-66 28t-28 66t28 66t66 28zM156 0v1409h168v-1409h-168z" />
    <glyph glyph-name="Ntilde" unicode="&#xd1;" horiz-adv-x="1347" 
d="M899 1706v-18q0 -66 -31.5 -101t-85.5 -35q-31 0 -125 25q-68 22 -90 22q-41 0 -41 -49h-77v19q0 66 31 100.5t85 34.5q38 0 125 -27q72 -20 90 -20q41 0 41 49h78zM1010 0l-502 815q-125 198 -215 377q6 -164 6 -377v-815h-160v1409h199l493 -799q2 -4 36.5 -60.5
t43 -71t36.5 -63t41.5 -75t33 -65.5t33.5 -72q-6 154 -6 407v799h159v-1409h-198z" />
    <glyph glyph-name="Ograve" unicode="&#xd2;" horiz-adv-x="1449" 
d="M633 1747l170 -236l-139 9l-218 235zM725 1430q291 0 471 -197.5t180 -527.5t-180 -527.5t-471 -197.5t-471 197.5t-180 527.5t180 527.5t471 197.5zM725 1282q-75 0 -143.5 -22.5t-127 -69t-101 -114t-67 -162.5t-24.5 -209q0 -142 37 -254t101.5 -181.5t147 -106
t177.5 -36.5t177.5 36.5t147 106t101.5 181.5t37 254q0 114 -24.5 209t-67 162.5t-101 114t-127 69t-143.5 22.5z" />
    <glyph glyph-name="Oacute" unicode="&#xd3;" horiz-adv-x="1449" 
d="M784 1520l-139 -9l170 236l186 8zM725 1430q291 0 471 -197.5t180 -527.5t-180 -527.5t-471 -197.5t-471 197.5t-180 527.5t180 527.5t471 197.5zM725 1282q-75 0 -143.5 -22.5t-127 -69t-101 -114t-67 -162.5t-24.5 -209q0 -142 37 -254t101.5 -181.5t147 -106
t177.5 -36.5t177.5 36.5t147 106t101.5 181.5t37 254q0 114 -24.5 209t-67 162.5t-101 114t-127 69t-143.5 22.5z" />
    <glyph glyph-name="Ocircumflex" unicode="&#xd4;" horiz-adv-x="1449" 
d="M965 1518h-131l-109 153l-109 -153h-129l179 237h120zM725 1430q291 0 471 -197.5t180 -527.5t-180 -527.5t-471 -197.5t-471 197.5t-180 527.5t180 527.5t471 197.5zM725 1282q-75 0 -143.5 -22.5t-127 -69t-101 -114t-67 -162.5t-24.5 -209q0 -142 37 -254
t101.5 -181.5t147 -106t177.5 -36.5t177.5 36.5t147 106t101.5 181.5t37 254q0 114 -24.5 209t-67 162.5t-101 114t-127 69t-143.5 22.5z" />
    <glyph glyph-name="Otilde" unicode="&#xd5;" horiz-adv-x="1449" 
d="M950 1706v-18q0 -66 -31 -101t-85 -35q-31 0 -125 25q-68 22 -91 22q-40 0 -40 -49h-78v19q0 66 31 100.5t85 34.5q38 0 125 -27q72 -20 90 -20q41 0 41 49h78zM725 1430q291 0 471 -197.5t180 -527.5t-180 -527.5t-471 -197.5t-471 197.5t-180 527.5t180 527.5
t471 197.5zM725 1282q-75 0 -143.5 -22.5t-127 -69t-101 -114t-67 -162.5t-24.5 -209q0 -142 37 -254t101.5 -181.5t147 -106t177.5 -36.5t177.5 36.5t147 106t101.5 181.5t37 254q0 114 -24.5 209t-67 162.5t-101 114t-127 69t-143.5 22.5z" />
    <glyph glyph-name="Odieresis" unicode="&#xd6;" horiz-adv-x="1449" 
d="M565 1698q38 0 66 -28t28 -66t-28 -66.5t-66 -28.5t-66 28.5t-28 66.5t28 66t66 28zM885 1698q38 0 66 -28t28 -66t-28 -66.5t-66 -28.5t-66 28.5t-28 66.5t28 66t66 28zM725 1430q291 0 471 -197.5t180 -527.5t-180 -527.5t-471 -197.5t-471 197.5t-180 527.5t180 527.5
t471 197.5zM725 1282q-75 0 -143.5 -22.5t-127 -69t-101 -114t-67 -162.5t-24.5 -209q0 -142 37 -254t101.5 -181.5t147 -106t177.5 -36.5t177.5 36.5t147 106t101.5 181.5t37 254q0 114 -24.5 209t-67 162.5t-101 114t-127 69t-143.5 22.5z" />
    <glyph glyph-name="Oslash" unicode="&#xd8;" horiz-adv-x="1449" 
d="M1354 1327l-123 -137q145 -194 145 -485q0 -330 -180 -527.5t-471 -197.5q-256 0 -428 155l-115 -129l-86 82l119 135q-141 190 -141 482q0 330 180 527.5t471 197.5q254 0 426 -152l117 131zM338 360l700 791q-125 131 -313 131q-75 0 -143.5 -22.5t-127 -69t-101 -114
t-67 -162.5t-24.5 -209q0 -203 76 -345zM1110 1053l-702 -791q126 -135 317 -135q95 0 177.5 36.5t147 106t101.5 181.5t37 254q0 205 -78 348z" />
    <glyph glyph-name="Ugrave" unicode="&#xd9;" horiz-adv-x="1304" 
d="M565 1747l170 -236l-139 9l-217 235zM1176 1409v-920q0 -240 -145 -379t-384 -139q-231 0 -368.5 138.5t-137.5 359.5v940h168v-915q0 -171 99 -271t256 -100q153 0 248.5 94.5t95.5 255.5v936h168z" />
    <glyph glyph-name="Uacute" unicode="&#xda;" horiz-adv-x="1304" 
d="M717 1520l-139 -9l170 236l186 8zM1176 1409v-920q0 -240 -145 -379t-384 -139q-231 0 -368.5 138.5t-137.5 359.5v940h168v-915q0 -171 99 -271t256 -100q153 0 248.5 94.5t95.5 255.5v936h168z" />
    <glyph glyph-name="Ucircumflex" unicode="&#xdb;" horiz-adv-x="1304" 
d="M897 1518h-131l-109 153l-108 -153h-129l178 237h121zM1176 1409v-920q0 -240 -145 -379t-384 -139q-231 0 -368.5 138.5t-137.5 359.5v940h168v-915q0 -171 99 -271t256 -100q153 0 248.5 94.5t95.5 255.5v936h168z" />
    <glyph glyph-name="Udieresis" unicode="&#xdc;" horiz-adv-x="1304" 
d="M498 1698q38 0 66 -28t28 -66t-28 -66.5t-66 -28.5t-66.5 28.5t-28.5 66.5t28.5 66t66.5 28zM817 1698q38 0 66 -28t28 -66t-28 -66.5t-66 -28.5t-66 28.5t-28 66.5t28 66t66 28zM1176 1409v-920q0 -240 -145 -379t-384 -139q-231 0 -368.5 138.5t-137.5 359.5v940h168
v-915q0 -171 99 -271t256 -100q153 0 248.5 94.5t95.5 255.5v936h168z" />
    <glyph glyph-name="Yacute" unicode="&#xdd;" horiz-adv-x="1085" 
d="M625 1520l-140 -9l170 236l187 8zM649 0h-168v606l-465 803h207l348 -657l353 657h190l-465 -803v-606z" />
    <glyph glyph-name="germandbls" unicode="&#xdf;" horiz-adv-x="1165" 
d="M455 8l10 137q85 -26 168 -26q105 0 181.5 70t76.5 186q0 137 -97 215t-255 80v137q58 0 114.5 20.5t104 58.5t77 99t29.5 135q0 129 -68 200t-192 71q-96 0 -165.5 -70.5t-69.5 -175.5v-1145h-168v840h-121v131h121v147q0 181 118 294.5t295 113.5q195 0 315 -106
t120 -277q0 -137 -88.5 -235t-221.5 -132q159 -30 247.5 -138.5t88.5 -250.5q0 -179 -126.5 -291t-325.5 -112q-91 0 -168 24z" />
    <glyph glyph-name="agrave" unicode="&#xe0;" horiz-adv-x="964" 
d="M410 1333l170 -235l-140 8l-217 235zM188 786l-10 140q130 73 303 73q348 0 348 -350v-649h-147l-18 145q-89 -165 -281 -165q-119 0 -203 74.5t-84 209.5q0 108 58.5 185.5t153.5 114t216 36.5q82 0 138 -12v76q0 97 -57 146.5t-165 49.5q-128 0 -252 -74zM662 379v84
q-50 12 -121 12q-118 0 -191.5 -56t-73.5 -145q0 -74 44.5 -118.5t115.5 -44.5q91 0 158.5 75t67.5 193z" />
    <glyph glyph-name="aacute" unicode="&#xe1;" horiz-adv-x="964" 
d="M561 1106l-139 -8l170 235l186 8zM188 786l-10 140q130 73 303 73q348 0 348 -350v-649h-147l-18 145q-89 -165 -281 -165q-119 0 -203 74.5t-84 209.5q0 108 58.5 185.5t153.5 114t216 36.5q82 0 138 -12v76q0 97 -57 146.5t-165 49.5q-128 0 -252 -74zM662 379v84
q-50 12 -121 12q-118 0 -191.5 -56t-73.5 -145q0 -74 44.5 -118.5t115.5 -44.5q91 0 158.5 75t67.5 193z" />
    <glyph glyph-name="acircumflex" unicode="&#xe2;" horiz-adv-x="964" 
d="M739 1104h-131l-108 153l-109 -153h-129l178 237h121zM188 786l-10 140q130 73 303 73q348 0 348 -350v-649h-147l-18 145q-89 -165 -281 -165q-119 0 -203 74.5t-84 209.5q0 108 58.5 185.5t153.5 114t216 36.5q82 0 138 -12v76q0 97 -57 146.5t-165 49.5
q-128 0 -252 -74zM662 379v84q-50 12 -121 12q-118 0 -191.5 -56t-73.5 -145q0 -74 44.5 -118.5t115.5 -44.5q91 0 158.5 75t67.5 193z" />
    <glyph glyph-name="atilde" unicode="&#xe3;" horiz-adv-x="964" 
d="M727 1292v-18q0 -66 -31.5 -100.5t-85.5 -34.5q-35 0 -125 24q-71 23 -90 23q-41 0 -41 -49h-78v18q0 66 31.5 100.5t85.5 34.5q41 0 125 -26q75 -21 90 -21q41 0 41 49h78zM188 786l-10 140q130 73 303 73q348 0 348 -350v-649h-147l-18 145q-89 -165 -281 -165
q-119 0 -203 74.5t-84 209.5q0 108 58.5 185.5t153.5 114t216 36.5q82 0 138 -12v76q0 97 -57 146.5t-165 49.5q-128 0 -252 -74zM662 379v84q-50 12 -121 12q-118 0 -191.5 -56t-73.5 -145q0 -74 44.5 -118.5t115.5 -44.5q91 0 158.5 75t67.5 193z" />
    <glyph glyph-name="adieresis" unicode="&#xe4;" horiz-adv-x="964" 
d="M342 1284q38 0 66 -28t28 -66t-28 -66t-66 -28t-66 28t-28 66t28 66t66 28zM662 1284q38 0 66 -28t28 -66t-28 -66t-66 -28t-66.5 28t-28.5 66t28.5 66t66.5 28zM188 786l-10 140q130 73 303 73q348 0 348 -350v-649h-147l-18 145q-89 -165 -281 -165q-119 0 -203 74.5
t-84 209.5q0 108 58.5 185.5t153.5 114t216 36.5q82 0 138 -12v76q0 97 -57 146.5t-165 49.5q-128 0 -252 -74zM662 379v84q-50 12 -121 12q-118 0 -191.5 -56t-73.5 -145q0 -74 44.5 -118.5t115.5 -44.5q91 0 158.5 75t67.5 193z" />
    <glyph glyph-name="aring" unicode="&#xe5;" horiz-adv-x="964" 
d="M502 1382q70 0 115 -40.5t45 -108.5t-45 -109t-115 -41t-115 41t-45 109t45 108.5t115 40.5zM502 1319q-30 0 -50 -23t-20 -63q0 -41 19.5 -63.5t50.5 -22.5t50 22.5t19 63.5q0 40 -19.5 63t-49.5 23zM188 786l-10 140q130 73 303 73q348 0 348 -350v-649h-147l-18 145
q-89 -165 -281 -165q-119 0 -203 74.5t-84 209.5q0 108 58.5 185.5t153.5 114t216 36.5q82 0 138 -12v76q0 97 -57 146.5t-165 49.5q-128 0 -252 -74zM662 379v84q-50 12 -121 12q-118 0 -191.5 -56t-73.5 -145q0 -74 44.5 -118.5t115.5 -44.5q91 0 158.5 75t67.5 193z" />
    <glyph glyph-name="ae" unicode="&#xe6;" horiz-adv-x="1542" 
d="M188 784l-10 142q130 73 301 73q231 0 309 -155q114 155 312 155q74 0 134 -24.5t100.5 -68t68 -104.5t39.5 -131.5t12 -152.5q0 -40 -8 -84h-592q7 -165 79 -242t214 -77q128 0 244 71l8 -139q-121 -67 -293 -67q-280 0 -377 221q-38 -105 -131 -163t-199 -58
q-129 0 -216 72.5t-87 207.5q0 81 35 143.5t95.5 99.5t136 56t161.5 19q82 0 154 -11v97q0 96 -64.5 146t-175.5 50q-123 0 -250 -76zM858 569h426q0 130 -48.5 208.5t-154.5 78.5q-99 0 -155.5 -77t-67.5 -210zM678 399v43q-68 11 -137 11q-116 0 -190.5 -43.5
t-74.5 -128.5q0 -75 44.5 -122.5t115.5 -47.5q39 0 79 16t77.5 48t61.5 90.5t24 133.5z" />
    <glyph glyph-name="ccedilla" unicode="&#xe7;" horiz-adv-x="880" 
d="M797 164l14 -137q-118 -47 -258 -47h-8l-19 -33q142 -23 142 -137q0 -76 -58.5 -115t-165.5 -39q-60 0 -110 27l10 79q51 -28 119 -28q39 0 62.5 19t23.5 50q0 39 -34 58.5t-116 19.5l58 107q-172 26 -275.5 150.5t-103.5 338.5q0 124 41.5 225t112 165t160.5 98t190 34
q147 0 239 -45l-14 -147q-95 53 -219 53q-144 0 -235 -95t-91 -276q0 -182 85.5 -278t242.5 -96q111 0 207 49z" />
    <glyph glyph-name="egrave" unicode="&#xe8;" horiz-adv-x="962" 
d="M401 1333l170 -235l-139 8l-217 235zM811 186l8 -139q-121 -67 -297 -67q-207 0 -325.5 124t-118.5 359q0 245 119.5 390.5t318.5 145.5q74 0 134.5 -25t101.5 -68.5t69 -104.5t40.5 -132.5t12.5 -152.5q0 -40 -8 -84h-612q7 -164 83.5 -240.5t225.5 -76.5q132 0 248 71z
M258 569h447q0 129 -50 208t-157 79q-100 0 -164.5 -78.5t-75.5 -208.5z" />
    <glyph glyph-name="eacute" unicode="&#xe9;" horiz-adv-x="962" 
d="M553 1106l-139 -8l170 235l186 8zM811 186l8 -139q-121 -67 -297 -67q-207 0 -325.5 124t-118.5 359q0 245 119.5 390.5t318.5 145.5q74 0 134.5 -25t101.5 -68.5t69 -104.5t40.5 -132.5t12.5 -152.5q0 -40 -8 -84h-612q7 -164 83.5 -240.5t225.5 -76.5q132 0 248 71z
M258 569h447q0 129 -50 208t-157 79q-100 0 -164.5 -78.5t-75.5 -208.5z" />
    <glyph glyph-name="ecircumflex" unicode="&#xea;" horiz-adv-x="962" 
d="M731 1104h-131l-108 153l-109 -153h-129l178 237h121zM811 186l8 -139q-121 -67 -297 -67q-207 0 -325.5 124t-118.5 359q0 245 119.5 390.5t318.5 145.5q74 0 134.5 -25t101.5 -68.5t69 -104.5t40.5 -132.5t12.5 -152.5q0 -40 -8 -84h-612q7 -164 83.5 -240.5
t225.5 -76.5q132 0 248 71zM258 569h447q0 129 -50 208t-157 79q-100 0 -164.5 -78.5t-75.5 -208.5z" />
    <glyph glyph-name="edieresis" unicode="&#xeb;" horiz-adv-x="962" 
d="M334 1284q38 0 66 -28t28 -66t-28 -66t-66 -28t-66 28t-28 66t28 66t66 28zM653 1284q38 0 66.5 -28t28.5 -66t-28.5 -66t-66.5 -28t-66 28t-28 66t28 66t66 28zM811 186l8 -139q-121 -67 -297 -67q-207 0 -325.5 124t-118.5 359q0 245 119.5 390.5t318.5 145.5
q74 0 134.5 -25t101.5 -68.5t69 -104.5t40.5 -132.5t12.5 -152.5q0 -40 -8 -84h-612q7 -164 83.5 -240.5t225.5 -76.5q132 0 248 71zM258 569h447q0 129 -50 208t-157 79q-100 0 -164.5 -78.5t-75.5 -208.5z" />
    <glyph glyph-name="igrave" unicode="&#xec;" horiz-adv-x="454" 
d="M135 1333l170 -235l-139 8l-217 235zM143 0v979h168v-979h-168z" />
    <glyph glyph-name="iacute" unicode="&#xed;" horiz-adv-x="454" 
d="M287 1106l-140 -8l170 235l187 8zM143 0v979h168v-979h-168z" />
    <glyph glyph-name="icircumflex" unicode="&#xee;" horiz-adv-x="454" 
d="M465 1104h-131l-109 153l-108 -153h-129l178 237h121zM143 0v979h168v-979h-168z" />
    <glyph glyph-name="idieresis" unicode="&#xef;" horiz-adv-x="454" 
d="M68 1284q38 0 66 -28t28 -66t-28 -66t-66 -28t-66.5 28t-28.5 66t28.5 66t66.5 28zM387 1284q38 0 66 -28t28 -66t-28 -66t-66 -28t-66 28t-28 66t28 66t66 28zM143 0v979h168v-979h-168z" />
    <glyph glyph-name="ntilde" unicode="&#xf1;" horiz-adv-x="1071" 
d="M786 1292v-18q0 -66 -31 -100.5t-85 -34.5q-35 0 -125 24q-71 23 -90 23q-41 0 -41 -49h-78v18q0 66 31.5 100.5t85.5 34.5q41 0 125 -26q75 -21 90 -21q41 0 41 49h77zM295 979l12 -184q39 101 122.5 152.5t180.5 51.5q154 0 240 -95.5t86 -250.5v-653h-168v604
q0 111 -53.5 179.5t-163.5 68.5q-99 0 -169.5 -89t-70.5 -216v-547h-168v979h152z" />
    <glyph glyph-name="ograve" unicode="&#xf2;" horiz-adv-x="1064" 
d="M440 1333l170 -235l-139 8l-217 235zM532 999q208 0 331.5 -140t123.5 -370t-123.5 -369.5t-331.5 -139.5t-331 139.5t-123 369.5t123 370t331 140zM532 864q-129 0 -199.5 -105t-70.5 -270t70.5 -269.5t199.5 -104.5t200 104.5t71 269.5t-71 270t-200 105z" />
    <glyph glyph-name="oacute" unicode="&#xf3;" horiz-adv-x="1064" 
d="M592 1106l-139 -8l170 235l186 8zM532 999q208 0 331.5 -140t123.5 -370t-123.5 -369.5t-331.5 -139.5t-331 139.5t-123 369.5t123 370t331 140zM532 864q-129 0 -199.5 -105t-70.5 -270t70.5 -269.5t199.5 -104.5t200 104.5t71 269.5t-71 270t-200 105z" />
    <glyph glyph-name="ocircumflex" unicode="&#xf4;" horiz-adv-x="1064" 
d="M772 1104h-131l-109 153l-108 -153h-129l178 237h121zM532 999q208 0 331.5 -140t123.5 -370t-123.5 -369.5t-331.5 -139.5t-331 139.5t-123 369.5t123 370t331 140zM532 864q-129 0 -199.5 -105t-70.5 -270t70.5 -269.5t199.5 -104.5t200 104.5t71 269.5t-71 270
t-200 105z" />
    <glyph glyph-name="otilde" unicode="&#xf5;" horiz-adv-x="1064" 
d="M758 1292v-18q0 -66 -31.5 -100.5t-85.5 -34.5q-35 0 -125 24q-71 23 -90 23q-41 0 -41 -49h-78v18q0 66 31.5 100.5t85.5 34.5q41 0 125 -26q75 -21 90 -21q41 0 41 49h78zM532 999q208 0 331.5 -140t123.5 -370t-123.5 -369.5t-331.5 -139.5t-331 139.5t-123 369.5
t123 370t331 140zM532 864q-129 0 -199.5 -105t-70.5 -270t70.5 -269.5t199.5 -104.5t200 104.5t71 269.5t-71 270t-200 105z" />
    <glyph glyph-name="odieresis" unicode="&#xf6;" horiz-adv-x="1064" 
d="M373 1284q38 0 66 -28t28 -66t-28 -66t-66 -28t-66 28t-28 66t28 66t66 28zM692 1284q38 0 66 -28t28 -66t-28 -66t-66 -28t-66 28t-28 66t28 66t66 28zM532 999q208 0 331.5 -140t123.5 -370t-123.5 -369.5t-331.5 -139.5t-331 139.5t-123 369.5t123 370t331 140z
M532 864q-129 0 -199.5 -105t-70.5 -270t70.5 -269.5t199.5 -104.5t200 104.5t71 269.5t-71 270t-200 105z" />
    <glyph glyph-name="oslash" unicode="&#xf8;" horiz-adv-x="1064" 
d="M1028 967l-131 -150q90 -133 90 -328q0 -230 -123.5 -369.5t-331.5 -139.5q-169 0 -290 100l-123 -139l-82 71l131 150q-90 133 -90 327q0 230 123 370t331 140q170 0 291 -100l123 139zM293 301l424 479q-71 84 -185 84q-129 0 -199.5 -105t-70.5 -270q0 -103 31 -188z
M772 678l-424 -479q71 -84 184 -84q129 0 200 104.5t71 269.5q0 104 -31 189z" />
    <glyph glyph-name="ugrave" unicode="&#xf9;" horiz-adv-x="1071" 
d="M440 1333l170 -235l-139 8l-217 235zM928 0h-152l-12 184q-39 -101 -122.5 -152.5t-180.5 -51.5q-154 0 -240 95.5t-86 250.5v653h168v-604q0 -111 53.5 -179.5t163.5 -68.5q99 0 169.5 89t70.5 216v547h168v-979z" />
    <glyph glyph-name="uacute" unicode="&#xfa;" horiz-adv-x="1071" 
d="M592 1106l-139 -8l170 235l186 8zM928 0h-152l-12 184q-39 -101 -122.5 -152.5t-180.5 -51.5q-154 0 -240 95.5t-86 250.5v653h168v-604q0 -111 53.5 -179.5t163.5 -68.5q99 0 169.5 89t70.5 216v547h168v-979z" />
    <glyph glyph-name="ucircumflex" unicode="&#xfb;" horiz-adv-x="1071" 
d="M772 1104h-131l-109 153l-108 -153h-129l178 237h121zM928 0h-152l-12 184q-39 -101 -122.5 -152.5t-180.5 -51.5q-154 0 -240 95.5t-86 250.5v653h168v-604q0 -111 53.5 -179.5t163.5 -68.5q99 0 169.5 89t70.5 216v547h168v-979z" />
    <glyph glyph-name="udieresis" unicode="&#xfc;" horiz-adv-x="1071" 
d="M373 1284q38 0 66 -28t28 -66t-28 -66t-66 -28t-66 28t-28 66t28 66t66 28zM692 1284q38 0 66 -28t28 -66t-28 -66t-66 -28t-66 28t-28 66t28 66t66 28zM928 0h-152l-12 184q-39 -101 -122.5 -152.5t-180.5 -51.5q-154 0 -240 95.5t-86 250.5v653h168v-604
q0 -111 53.5 -179.5t163.5 -68.5q99 0 169.5 89t70.5 216v547h168v-979z" />
    <glyph glyph-name="yacute" unicode="&#xfd;" horiz-adv-x="931" 
d="M530 1106l-139 -8l170 235l187 8zM926 979l-363 -979q-62 -169 -173.5 -284t-256.5 -156l-59 143q240 85 309 281l-367 995h193l266 -819l268 819h183z" />
    <glyph glyph-name="ydieresis" unicode="&#xff;" horiz-adv-x="931" 
d="M311 1284q38 0 66.5 -28t28.5 -66t-28.5 -66t-66.5 -28t-66 28t-28 66t28 66t66 28zM631 1284q38 0 66 -28t28 -66t-28 -66t-66 -28t-66 28t-28 66t28 66t66 28zM926 979l-363 -979q-62 -169 -173.5 -284t-256.5 -156l-59 143q240 85 309 281l-367 995h193l266 -819
l268 819h183z" />
    <glyph glyph-name="Abreve" unicode="&#x102;" horiz-adv-x="1220" 
d="M397 1751h92q6 -67 38 -104t85 -37t85 37t38 104h92q0 -102 -54 -170t-161 -68q-56 0 -98.5 19.5t-67 53t-37 75t-12.5 90.5zM354 465l-149 -465h-178l477 1409h217l477 -1409h-184l-150 465h-510zM608 1260l-207 -648h416z" />
    <glyph glyph-name="abreve" unicode="&#x103;" horiz-adv-x="964" 
d="M287 1337h92q6 -67 38 -104t85 -37t85 37t38 104h92q0 -102 -54 -169.5t-161 -67.5q-109 0 -162 67.5t-53 169.5zM188 786l-10 140q130 73 303 73q348 0 348 -350v-649h-147l-18 145q-89 -165 -281 -165q-119 0 -203 74.5t-84 209.5q0 108 58.5 185.5t153.5 114t216 36.5
q82 0 138 -12v76q0 97 -57 146.5t-165 49.5q-128 0 -252 -74zM662 379v84q-50 12 -121 12q-118 0 -191.5 -56t-73.5 -145q0 -74 44.5 -118.5t115.5 -44.5q91 0 158.5 75t67.5 193z" />
    <glyph glyph-name="Gbreve" unicode="&#x11e;" horiz-adv-x="1337" 
d="M526 1751h92q6 -67 38 -104t85 -37t85 37t38 104h92q0 -102 -54 -170t-161 -68q-56 0 -98.5 19.5t-67 53t-37 75t-12.5 90.5zM1204 678v-619q-83 -35 -211 -57t-231 -22q-310 0 -491 187t-181 527q0 145 41 267.5t111 207.5t164 145t199 88t216 28q119 0 226.5 -24.5
t171.5 -66.5l-13 -157q-176 102 -405 102q-102 0 -194 -36.5t-166 -105.5t-118 -180.5t-44 -250.5q0 -286 136 -435t365 -149q59 0 132 11.5t124 31.5v360h-301v148h469z" />
    <glyph glyph-name="gbreve" unicode="&#x11f;" horiz-adv-x="1112" 
d="M326 1337h92q6 -67 38 -104t85 -37t85 37t38 104h92q0 -102 -54 -169.5t-161 -67.5q-109 0 -162 67.5t-53 169.5zM969 979v-883q0 -268 -141.5 -402t-391.5 -134q-158 0 -280 78l10 151q63 -42 140 -66t143 -24q166 0 259 96t93 287v88q-45 -88 -124 -139t-179 -51
q-188 0 -304 137t-116 360q0 230 125.5 376t320.5 146q102 0 180 -53t103 -133l10 166h152zM801 426v106q0 138 -76 232t-186 94q-121 0 -199 -102t-78 -271q0 -155 71.5 -257.5t198.5 -102.5q104 0 186.5 88.5t82.5 212.5z" />
    <glyph glyph-name="Idotaccent" unicode="&#x130;" horiz-adv-x="479" 
d="M240 1735q43 0 73.5 -31t30.5 -74t-30.5 -73.5t-73.5 -30.5t-74 30.5t-31 73.5t31 74t74 31zM156 0v1409h168v-1409h-168z" />
    <glyph glyph-name="dotlessi" unicode="&#x131;" horiz-adv-x="454" 
d="M311 0h-168v979h168v-979z" />
    <glyph glyph-name="IJ" unicode="&#x132;" horiz-adv-x="956" 
d="M156 0v1409h168v-1409h-168zM817 1409v-1112q0 -199 -55.5 -341t-159.5 -233.5t-270 -160.5l-68 145q103 44 171.5 91t118.5 115.5t72.5 160.5t22.5 219v1116h168z" />
    <glyph glyph-name="ij" unicode="&#x133;" horiz-adv-x="942" 
d="M227 1337q43 0 74 -30.5t31 -73.5t-31 -74t-74 -31t-73.5 31t-30.5 74t30.5 73.5t73.5 30.5zM715 1337q43 0 73.5 -30.5t30.5 -73.5t-30.5 -74t-73.5 -31t-74 31t-31 74t31 73.5t74 30.5zM143 979h168v-979h-168v979zM799 979v-719q0 -144 -26 -255t-79 -192.5
t-118 -138.5t-158 -110l-88 129q108 63 171 131.5t96.5 172t33.5 253.5v729h168z" />
    <glyph glyph-name="OE" unicode="&#x152;" horiz-adv-x="2025" 
d="M1946 147v-147h-758v236q-74 -125 -192.5 -190.5t-270.5 -65.5q-291 0 -471 197.5t-180 527.5t180 527.5t471 197.5q152 0 270.5 -65.5t192.5 -190.5v227h749v-148h-581v-469h516v-147h-516v-490h590zM725 127q95 0 177.5 36.5t147 106t101.5 181.5t37 254
q0 114 -24.5 209t-67 162.5t-101 114t-127 69t-143.5 22.5t-143.5 -22.5t-127 -69t-101 -114t-67 -162.5t-24.5 -209q0 -142 37 -254t101.5 -181.5t147 -106t177.5 -36.5z" />
    <glyph glyph-name="oe" unicode="&#x153;" horiz-adv-x="1687" 
d="M1536 186l8 -139q-121 -67 -297 -67q-123 0 -216.5 54.5t-147.5 158.5q-52 -102 -141 -157.5t-210 -55.5q-208 0 -331 139.5t-123 369.5t123 370t331 140q123 0 214 -57.5t141 -163.5q54 106 145 163.5t209 57.5q74 0 134.5 -25t101.5 -68.5t69 -104.5t40.5 -132.5
t12.5 -152.5q0 -40 -8 -84h-612q7 -164 83.5 -240.5t225.5 -76.5q132 0 248 71zM532 115q130 0 200.5 98.5t70.5 261.5q0 167 -71.5 278t-199.5 111q-129 0 -199.5 -105t-70.5 -270t70.5 -269.5t199.5 -104.5zM983 569h447q0 129 -50 208t-157 79q-100 0 -164.5 -78.5
t-75.5 -208.5z" />
    <glyph glyph-name="Scedilla" unicode="&#x15e;" horiz-adv-x="1015" 
d="M891 1358l-21 -160q-48 36 -123 60t-151 24q-111 0 -189.5 -65.5t-78.5 -163.5q0 -99 60.5 -166t186.5 -113q175 -65 256.5 -157t81.5 -230q0 -156 -103.5 -265.5t-277.5 -135.5l-22 -39q68 -11 104.5 -45.5t36.5 -91.5q0 -76 -58 -115t-165 -39q-62 0 -111 27l11 79
q51 -28 118 -28q39 0 62.5 19t23.5 50q0 39 -33.5 58.5t-115.5 19.5l53 99h-2q-197 0 -340 83l21 160q72 -48 163.5 -72t170.5 -24q123 0 201.5 66.5t78.5 166.5q0 91 -56 153.5t-179 109.5q-166 64 -255 157.5t-89 241.5q0 187 127 297.5t333 110.5q73 0 154.5 -21
t126.5 -51z" />
    <glyph glyph-name="scedilla" unicode="&#x15f;" horiz-adv-x="755" 
d="M664 952l-11 -143q-84 51 -217 51q-71 0 -117.5 -37.5t-46.5 -95.5q0 -67 37.5 -104t106.5 -60q141 -45 204.5 -112.5t63.5 -176.5q0 -112 -72.5 -185t-193.5 -99l-25 -43q142 -23 142 -137q0 -76 -58.5 -115t-165.5 -39q-61 0 -110 27l10 79q51 -28 119 -28
q39 0 62.5 19t23.5 50q0 39 -34 58.5t-116 19.5l53 99h-14q-124 0 -237 45l10 141q121 -47 229 -47q89 0 148 38.5t59 104.5q0 56 -36 90.5t-118 65.5q-135 51 -197.5 115.5t-62.5 175.5q0 60 19 109t51.5 82t76.5 55.5t93.5 33t103.5 10.5q58 0 119.5 -13.5t100.5 -33.5z
" />
    <glyph glyph-name="Wcircumflex" unicode="&#x174;" horiz-adv-x="1759" 
d="M1130 1518h-131l-108 153l-109 -153h-129l178 237h121zM213 1409l217 -881q41 -170 78 -368q21 143 74 368l213 873h194l213 -873q46 -183 70 -370q23 144 80 370l221 881h182l-385 -1409h-213l-201 856q-45 190 -71 369q-28 -190 -70 -369l-201 -856h-215l-379 1409h193
z" />
    <glyph glyph-name="wcircumflex" unicode="&#x175;" horiz-adv-x="1341" 
d="M915 1104h-131l-108 153l-109 -153h-129l178 237h121zM860 0l-94 365q-58 217 -90 403q-26 -180 -86 -403l-96 -365h-191l-287 979h189l119 -451q49 -181 75 -385q22 168 80 385l117 443h172l115 -443q54 -203 78 -385q23 175 79 385l119 451h176l-286 -979h-189z" />
    <glyph glyph-name="Ycircumflex" unicode="&#x176;" horiz-adv-x="1085" 
d="M805 1518h-131l-109 153l-108 -153h-129l178 237h121zM649 0h-168v606l-465 803h207l348 -657l353 657h190l-465 -803v-606z" />
    <glyph glyph-name="ycircumflex" unicode="&#x177;" horiz-adv-x="931" 
d="M709 1104h-131l-109 153l-109 -153h-129l179 237h120zM926 979l-363 -979q-62 -169 -173.5 -284t-256.5 -156l-59 143q240 85 309 281l-367 995h193l266 -819l268 819h183z" />
    <glyph glyph-name="Ydieresis" unicode="&#x178;" horiz-adv-x="1085" 
d="M406 1698q38 0 66 -28t28 -66t-28 -66.5t-66 -28.5t-66.5 28.5t-28.5 66.5t28.5 66t66.5 28zM725 1698q38 0 66 -28t28 -66t-28 -66.5t-66 -28.5t-66 28.5t-28 66.5t28 66t66 28zM649 0h-168v606l-465 803h207l348 -657l353 657h190l-465 -803v-606z" />
    <glyph glyph-name="circumflex" unicode="&#x2c6;" horiz-adv-x="1024" 
d="M752 1104h-131l-109 153l-109 -153h-129l179 237h120z" />
    <glyph glyph-name="breve" unicode="&#x2d8;" horiz-adv-x="1024" 
d="M297 1337h92q6 -67 38 -104t85 -37t85 37t38 104h92q0 -102 -54 -169.5t-161 -67.5q-109 0 -162 67.5t-53 169.5z" />
    <glyph glyph-name="ring" unicode="&#x2da;" horiz-adv-x="1024" 
d="M512 1382q70 0 115 -40.5t45 -108.5t-45 -109t-115 -41t-115 41t-45 109t45 108.5t115 40.5zM512 1319q-30 0 -50 -23t-20 -63q0 -41 19.5 -63.5t50.5 -22.5t50.5 22.5t19.5 63.5q0 40 -20 63t-50 23z" />
    <glyph glyph-name="tilde" unicode="&#x2dc;" horiz-adv-x="1024" 
d="M737 1292v-18q0 -66 -31 -100.5t-85 -34.5q-35 0 -125 24q-71 23 -90 23q-41 0 -41 -49h-78v18q0 66 31 100.5t85 34.5q41 0 125 -26q75 -21 90 -21q41 0 41 49h78z" />
    <glyph glyph-name="Wgrave" unicode="&#x1e80;" horiz-adv-x="1759" 
d="M799 1747l170 -236l-140 9l-217 235zM213 1409l217 -881q41 -170 78 -368q21 143 74 368l213 873h194l213 -873q46 -183 70 -370q23 144 80 370l221 881h182l-385 -1409h-213l-201 856q-45 190 -71 369q-28 -190 -70 -369l-201 -856h-215l-379 1409h193z" />
    <glyph glyph-name="wgrave" unicode="&#x1e81;" horiz-adv-x="1341" 
d="M584 1333l170 -235l-140 8l-217 235zM860 0l-94 365q-58 217 -90 403q-26 -180 -86 -403l-96 -365h-191l-287 979h189l119 -451q49 -181 75 -385q22 168 80 385l117 443h172l115 -443q54 -203 78 -385q23 175 79 385l119 451h176l-286 -979h-189z" />
    <glyph glyph-name="Wacute" unicode="&#x1e82;" horiz-adv-x="1759" 
d="M950 1520l-139 -9l170 236l186 8zM213 1409l217 -881q41 -170 78 -368q21 143 74 368l213 873h194l213 -873q46 -183 70 -370q23 144 80 370l221 881h182l-385 -1409h-213l-201 856q-45 190 -71 369q-28 -190 -70 -369l-201 -856h-215l-379 1409h193z" />
    <glyph glyph-name="wacute" unicode="&#x1e83;" horiz-adv-x="1341" 
d="M735 1106l-139 -8l170 235l186 8zM860 0l-94 365q-58 217 -90 403q-26 -180 -86 -403l-96 -365h-191l-287 979h189l119 -451q49 -181 75 -385q22 168 80 385l117 443h172l115 -443q54 -203 78 -385q23 175 79 385l119 451h176l-286 -979h-189z" />
    <glyph glyph-name="Wdieresis" unicode="&#x1e84;" horiz-adv-x="1759" 
d="M731 1698q38 0 66 -28t28 -66t-28 -66.5t-66 -28.5t-66 28.5t-28 66.5t28 66t66 28zM1051 1698q38 0 66 -28t28 -66t-28 -66.5t-66 -28.5t-66.5 28.5t-28.5 66.5t28.5 66t66.5 28zM213 1409l217 -881q41 -170 78 -368q21 143 74 368l213 873h194l213 -873
q46 -183 70 -370q23 144 80 370l221 881h182l-385 -1409h-213l-201 856q-45 190 -71 369q-28 -190 -70 -369l-201 -856h-215l-379 1409h193z" />
    <glyph glyph-name="wdieresis" unicode="&#x1e85;" horiz-adv-x="1341" 
d="M516 1284q38 0 66 -28t28 -66t-28 -66t-66 -28t-66 28t-28 66t28 66t66 28zM836 1284q38 0 66 -28t28 -66t-28 -66t-66 -28t-66.5 28t-28.5 66t28.5 66t66.5 28zM860 0l-94 365q-58 217 -90 403q-26 -180 -86 -403l-96 -365h-191l-287 979h189l119 -451q49 -181 75 -385
q22 168 80 385l117 443h172l115 -443q54 -203 78 -385q23 175 79 385l119 451h176l-286 -979h-189z" />
    <glyph glyph-name="Ygrave" unicode="&#x1ef2;" horiz-adv-x="1085" 
d="M473 1747l170 -236l-139 9l-217 235zM649 0h-168v606l-465 803h207l348 -657l353 657h190l-465 -803v-606z" />
    <glyph glyph-name="ygrave" unicode="&#x1ef3;" horiz-adv-x="931" 
d="M379 1333l170 -235l-139 8l-217 235zM926 979l-363 -979q-62 -169 -173.5 -284t-256.5 -156l-59 143q240 85 309 281l-367 995h193l266 -819l268 819h183z" />
    <glyph glyph-name="endash" unicode="&#x2013;" horiz-adv-x="1024" 
d="M909 504h-794v98h794v-98z" />
    <glyph glyph-name="emdash" unicode="&#x2014;" horiz-adv-x="2048" 
d="M1933 504h-1818v98h1818v-98z" />
    <glyph glyph-name="quoteleft" unicode="&#x2018;" horiz-adv-x="434" 
d="M205 956l-164 -8l240 547l116 10z" />
    <glyph glyph-name="quoteright" unicode="&#x2019;" horiz-adv-x="444" 
d="M172 958l-117 -10l193 549l164 8z" />
    <glyph glyph-name="quotedblleft" unicode="&#x201c;" horiz-adv-x="700" 
d="M205 956l-164 -8l240 547l116 10zM471 956l-164 -8l240 547l117 10z" />
    <glyph glyph-name="quotedblright" unicode="&#x201d;" horiz-adv-x="710" 
d="M172 958l-117 -10l193 549l164 8zM438 958l-116 -10l192 549l164 8z" />
    <glyph glyph-name="quotedblbase" unicode="&#x201e;" horiz-adv-x="765" 
d="M86 -291l-133 -10l151 508l201 8zM393 -291l-133 -10l152 508l200 8z" />
    <glyph glyph-name="ellipsis" unicode="&#x2026;" horiz-adv-x="1400" 
d="M207 225q51 0 87 -36t36 -87t-36 -86.5t-87 -35.5t-87 35.5t-36 86.5t36 87t87 36zM678 225q51 0 87 -36t36 -87t-36 -86.5t-87 -35.5t-87 35.5t-36 86.5t36 87t87 36zM1149 225q51 0 87 -36t36 -87t-36 -86.5t-87 -35.5t-87 35.5t-36 86.5t36 87t87 36z" />
    <glyph glyph-name="guilsinglleft" unicode="&#x2039;" horiz-adv-x="585" 
d="M240 516l243 -346h-147l-244 346l244 346h147z" />
    <glyph glyph-name="guilsinglright" unicode="&#x203a;" horiz-adv-x="585" 
d="M494 516l-244 -346h-148l244 346l-244 346h148z" />
    <glyph glyph-name="Euro" unicode="&#x20ac;" 
d="M133 836h49q30 261 166 400.5t375 139.5q163 0 235 -59l-12 -158q-81 70 -233 70q-158 0 -242.5 -98.5t-105.5 -294.5h421l-10 -111h-418q-4 -62 0 -139h406l-8 -111h-385q24 -173 104.5 -260.5t231.5 -87.5q134 0 229 74l14 -152q-57 -38 -117.5 -53.5t-150.5 -15.5
q-220 0 -346.5 128.5t-153.5 366.5h-73l8 111h57q-4 71 0 139h-49z" />
    </font>
</defs>
</svg>
