<svg xmlns="http://www.w3.org/2000/svg" width="30" height="29.999" viewBox="0 0 30 29.999">
  <g id="umbrella" transform="translate(0 -0.001)">
    <path id="Path_289" data-name="Path 289" d="M14.121,1.8V.88a.879.879,0,0,1,1.758,0V1.8A15,15,0,0,1,30,16.7a.879.879,0,0,1-1.758,0c0-.219-.936-.879-2.637-.879s-2.7.66-2.7.879a.879.879,0,0,1-1.758,0c0-.219-.936-.879-2.637-.879s-2.637.66-2.637.879v9.785a3.516,3.516,0,0,1-7.031,0,.879.879,0,0,1,1.758,0,1.758,1.758,0,0,0,3.516,0V16.7c0-.219-.936-.879-2.637-.879a3.381,3.381,0,0,0-2.57.791s0,.01,0,.014a.88.88,0,0,1-.808.945l-.07,0c-.008,0-.014,0-.022,0s-.03.009-.047.009A.878.878,0,0,1,7.09,16.7c0-.219-.936-.879-2.637-.879s-2.7.66-2.7.879A.879.879,0,0,1,0,16.7,15,15,0,0,1,14.121,1.8Z" transform="translate(0 0)" fill="#5f78e2"/>
  </g>
</svg>
