<svg xmlns="http://www.w3.org/2000/svg" width="24" height="27.6" viewBox="0 0 24 27.6">
  <path id="apple" d="M54.94,13.649a.8.8,0,0,0-1.046-.694,1.6,1.6,0,0,1-1.976-2.127.81.81,0,0,0-.533-1.082,1.612,1.612,0,0,1-1.153-1.871.809.809,0,0,0-.561-.934,7.2,7.2,0,0,0-5.2.3,3.077,3.077,0,0,1-.672.272V7.385a4.026,4.026,0,0,1,4-4.043.809.809,0,0,0,0-1.617,5.568,5.568,0,0,0-4.317,2.058A5.614,5.614,0,0,0,38.2,0H36.6a.8.8,0,0,0-.8.809,5.637,5.637,0,0,0,5.6,5.66h.874a5.967,5.967,0,0,0-.074,1.04,3.074,3.074,0,0,1-.672-.272C38.26,5.439,31,7.093,31,14.663,31,19.888,36.057,27.6,40.6,27.6a4.552,4.552,0,0,0,2.4-.673,4.552,4.552,0,0,0,2.4.673c4.543,0,9.6-7.712,9.6-12.938,0-.353-.028-.666-.06-1.014Z" transform="translate(-31)" fill="#3ab54a"/>
</svg>
