<svg xmlns="http://www.w3.org/2000/svg" width="28" height="27.351" viewBox="0 0 28 27.351">
  <g id="cup-of-drink" transform="translate(0 -3.813)">
    <path id="Path_291" data-name="Path 291" d="M96.519,13.11a.524.524,0,0,0,.3.091h0a.529.529,0,0,0,.507-.677,3.752,3.752,0,0,1,.428-3.189,4.233,4.233,0,0,0,.822-3.171A3.337,3.337,0,0,0,97.112,3.9a.537.537,0,0,0-.6,0,.526.526,0,0,0-.215.556A4.489,4.489,0,0,1,95.582,8.1a4.307,4.307,0,0,0-.537,2.654A3.317,3.317,0,0,0,96.519,13.11Z" transform="translate(-86.925 0)" fill="#d9a384"/>
    <path id="Path_292" data-name="Path 292" d="M150.609,30.687a.493.493,0,0,0,.28.087h0a.5.5,0,0,0,.478-.635,2.852,2.852,0,0,1,.321-2.419,3.391,3.391,0,0,0,.658-2.541,2.691,2.691,0,0,0-1.178-1.822.5.5,0,0,0-.762.525,3.434,3.434,0,0,1-.554,2.781,3.447,3.447,0,0,0-.429,2.125A2.671,2.671,0,0,0,150.609,30.687Z" transform="translate(-136.68 -17.804)" fill="#d9a384"/>
    <path id="Path_293" data-name="Path 293" d="M27.551,123.431a1.708,1.708,0,0,0-1.326-.6H23.786a1.868,1.868,0,0,0-.35-1.29,1.149,1.149,0,0,0-.908-.4H1.395a1.3,1.3,0,0,0-1.042.438,1.87,1.87,0,0,0-.325,1.459,21.641,21.641,0,0,0,3.541,9.148,10.822,10.822,0,0,0,4.41,3.669H2.093a1.326,1.326,0,0,0,0,2.652H21.7a1.326,1.326,0,1,0,0-2.652H15.843a10.271,10.271,0,0,0,3.711-2.787,9.065,9.065,0,0,0,5.354-2.558,9.878,9.878,0,0,0,3.063-5.386A2.156,2.156,0,0,0,27.551,123.431Zm-5.83,6.3a22.583,22.583,0,0,0,1.558-4.344h2.012A8.2,8.2,0,0,1,21.721,129.727Z" transform="translate(0 -107.345)" fill="#d9a384"/>
  </g>
</svg>
